<svg id="Capa_1" enable-background="new 0 0 512 512" height="512" viewBox="0 0 512 512" width="512" xmlns="http://www.w3.org/2000/svg"><g><path d="m512 477.314v24.384c0 5.687-4.615 10.302-10.302 10.302h-491.396c-5.687 0-10.302-4.615-10.302-10.302l.01-24.384c.01-1.648.206-3.276.587-4.863h510.825c.382 1.587.578 3.225.578 4.863z" fill="#9dc6fb"/><circle cx="291.382" cy="268.488" fill="#ffe07d" r="77.008"/><path d="m291.382 345.496c17.268 0 33.208-5.684 46.053-15.283l-67.799-135.599c-31.937 9.387-55.262 38.898-55.262 73.873 0 42.531 34.478 77.009 77.008 77.009z" fill="#ffd064"/><g><path d="m511.423 472.451h-290.81l81.178-162.336v-.01l9.725-19.45 9.179 6.356c.072.041.134.093.206.124 3.029 1.978 7.026 1.648 9.684-.834l10.838-10.055c3.523-3.276 9.128-2.668 11.888 1.277l6.501 9.333c3.152 4.523 9.838 4.523 12.99 0l6.511-9.333c2.751-3.946 8.355-4.553 11.878-1.277l10.838 10.055c2.72 2.534 6.841 2.823 9.89.711l9.179-6.356 88.73 177.449c.689 1.379 1.224 2.842 1.595 4.346z" fill="#95d6a4"/><path d="m408.56 472.451h-187.947l90.903-181.796 9.179 6.356c.072.041.134.093.206.124z" fill="#78c2a4"/><path d="m382.96 472.451h-382.362c.371-1.504.906-2.957 1.597-4.347l117.275-234.583 12.063 8.355c4.018 2.781 9.426 2.39 13.001-.938l14.237-13.217c4.636-4.296 12.002-3.513 15.618 1.679l8.551 12.27c4.141 5.944 12.939 5.944 17.08 0l8.551-12.27c3.616-5.192 10.982-5.975 15.618-1.679l14.237 13.217c.793.742 1.669 1.329 2.606 1.772 3.297 1.576 7.263 1.329 10.395-.834l12.063-8.355 38.302 76.594z" fill="#b3e59f"/><path d="m382.96 472.451h-27.053s-63.191-126.372-114.876-229.741c3.297 1.576 7.263 1.329 10.395-.834l12.063-8.355z" fill="#95d6a4"/><path d="m131.53 241.874c4.016 2.78 9.425 2.393 13.005-.93l14.236-13.22c4.634-4.303 12.003-3.513 15.619 1.675l8.552 12.27c4.141 5.941 12.934 5.941 17.075 0l8.552-12.27c3.616-5.188 10.985-5.978 15.619-1.675l14.237 13.22c3.579 3.324 8.989 3.711 13.005.93l12.064-8.352c-22.525-45.05-47.015-94.03-60.844-121.687-4.602-9.204-17.737-9.204-22.339 0l-60.844 121.687z" fill="#f9f6f9"/><g fill="#dfdde2"><path d="m241.025 242.701c3.298 1.574 7.272 1.34 10.403-.828l12.064-8.352c-22.525-45.05-47.015-94.03-60.844-121.687-4.602-9.204-17.737-9.204-22.339 0l-2.359 4.718c8.284 16.567 32.798 65.595 63.075 126.149z"/><path d="m320.695 297.013c3.056 2.115 7.171 1.821 9.895-.708l10.832-10.058c3.526-3.274 9.133-2.673 11.884 1.275l6.507 9.336c3.151 4.521 9.841 4.521 12.992 0l6.507-9.336c2.751-3.947 8.358-4.549 11.884-1.275l10.832 10.059c2.723 2.529 6.839 2.823 9.895.708l9.179-6.355c-16.709-33.418-34.839-69.678-45.488-90.976-3.835-7.67-14.778-7.664-18.613.006l-45.485 90.969z"/></g></g><g><path d="m486.111 87.787c-1.972-.341-3.702-1.582-4.531-3.403-5.899-12.945-18.945-21.946-34.1-21.946s-28.2 9.001-34.1 21.946c-.83 1.821-2.56 3.062-4.531 3.403-11.714 2.027-20.632 12.211-20.686 24.491-.06 13.8 11.718 25.087 25.518 25.087h67.598c13.8 0 25.578-11.287 25.518-25.087-.054-12.28-8.973-22.463-20.686-24.491z" fill="#ddeafb"/><path d="m481.559 84.342c-3.759-8.219-10.403-14.841-18.636-18.574 2.123 5.954 3.288 12.363 3.288 19.046 0 23.776-14.637 44.122-35.386 52.553h50.453c13.8 0 25.578-11.287 25.518-25.087-.054-12.284-8.977-22.469-20.695-24.493-1.985-.344-3.703-1.613-4.542-3.445z" fill="#9dc6fb"/></g><g><path d="m311.281 25.348c-1.972-.341-3.702-1.582-4.531-3.403-5.899-12.944-18.945-21.945-34.1-21.945-15.154 0-28.2 9.001-34.1 21.946-.83 1.821-2.56 3.062-4.531 3.403-11.714 2.027-20.632 12.211-20.686 24.491-.06 13.8 11.718 25.087 25.518 25.087h67.598c13.8 0 25.578-11.287 25.518-25.087-.053-12.281-8.972-22.464-20.686-24.492z" fill="#ddeafb"/><path d="m306.73 21.903c-3.759-8.219-10.403-14.841-18.636-18.574 2.123 5.954 3.288 12.363 3.288 19.046 0 23.776-14.637 44.122-35.386 52.553h50.453c13.8 0 25.578-11.287 25.518-25.087-.054-12.284-8.977-22.469-20.695-24.493-1.986-.344-3.704-1.613-4.542-3.445z" fill="#9dc6fb"/></g><g><path d="m97.948 58.649c-1.972-.341-3.702-1.582-4.531-3.403-5.899-12.945-18.945-21.946-34.1-21.946s-28.2 9.001-34.1 21.946c-.83 1.821-2.56 3.062-4.531 3.403-11.714 2.028-20.632 12.211-20.686 24.491-.06 13.8 11.718 25.087 25.518 25.087h67.598c13.8 0 25.578-11.287 25.518-25.087-.054-12.28-8.972-22.463-20.686-24.491z" fill="#ddeafb"/><path d="m93.397 55.203c-3.759-8.219-10.403-14.841-18.636-18.574 2.123 5.954 3.288 12.363 3.288 19.046 0 23.776-14.637 44.122-35.386 52.553h50.453c13.8 0 25.578-11.287 25.518-25.087-.054-12.284-8.977-22.469-20.695-24.493-1.986-.343-3.704-1.612-4.542-3.445z" fill="#9dc6fb"/></g></g></svg>